<mxfile host="app.diagrams.net" modified="2023-11-25T18:48:35.387Z" agent="Mozilla/5.0 (Windows NT 10.0; Win64; x64) AppleWebKit/537.36 (KHTML, like Gecko) Chrome/119.0.0.0 Safari/537.36" etag="zOsNnVYxLPYMC-ZxJ3xK" version="22.1.4" type="device">
  <diagram name="Сторінка-1" id="eIQWJ0iW8y0-mAVZZctP">
    <mxGraphModel dx="1434" dy="738" grid="1" gridSize="10" guides="1" tooltips="1" connect="1" arrows="1" fold="1" page="1" pageScale="1" pageWidth="827" pageHeight="1169" math="0" shadow="0">
      <root>
        <mxCell id="0" />
        <mxCell id="1" parent="0" />
        <mxCell id="K43IYD7qbKb4vnzpeUmj-2" value="" style="rounded=0;whiteSpace=wrap;html=1;" vertex="1" parent="1">
          <mxGeometry x="320" y="80" width="200" height="150" as="geometry" />
        </mxCell>
        <mxCell id="K43IYD7qbKb4vnzpeUmj-3" value="&lt;span style=&quot;font-size: 20px;&quot;&gt;&lt;font style=&quot;font-size: 20px;&quot;&gt;a&lt;/font&gt;&lt;/span&gt;" style="ellipse;whiteSpace=wrap;html=1;aspect=fixed;" vertex="1" parent="1">
          <mxGeometry x="387.5" y="122.5" width="65" height="65" as="geometry" />
        </mxCell>
        <mxCell id="K43IYD7qbKb4vnzpeUmj-4" value="MonitorA" style="text;html=1;align=center;verticalAlign=middle;resizable=0;points=[];autosize=1;strokeColor=none;fillColor=none;" vertex="1" parent="1">
          <mxGeometry x="385" y="80" width="70" height="30" as="geometry" />
        </mxCell>
        <mxCell id="K43IYD7qbKb4vnzpeUmj-5" value="getA()" style="rounded=0;whiteSpace=wrap;html=1;" vertex="1" parent="1">
          <mxGeometry x="250" y="100" width="110" height="30" as="geometry" />
        </mxCell>
        <mxCell id="K43IYD7qbKb4vnzpeUmj-6" value="minA(value)" style="rounded=0;whiteSpace=wrap;html=1;" vertex="1" parent="1">
          <mxGeometry x="250" y="160" width="110" height="30" as="geometry" />
        </mxCell>
        <mxCell id="K43IYD7qbKb4vnzpeUmj-7" value="" style="rounded=0;whiteSpace=wrap;html=1;" vertex="1" parent="1">
          <mxGeometry x="320" y="270" width="200" height="150" as="geometry" />
        </mxCell>
        <mxCell id="K43IYD7qbKb4vnzpeUmj-8" value="&lt;span style=&quot;font-size: 20px;&quot;&gt;d&lt;/span&gt;" style="ellipse;whiteSpace=wrap;html=1;aspect=fixed;" vertex="1" parent="1">
          <mxGeometry x="387.5" y="312.5" width="65" height="65" as="geometry" />
        </mxCell>
        <mxCell id="K43IYD7qbKb4vnzpeUmj-9" value="MonitorD" style="text;html=1;align=center;verticalAlign=middle;resizable=0;points=[];autosize=1;strokeColor=none;fillColor=none;" vertex="1" parent="1">
          <mxGeometry x="385" y="270" width="70" height="30" as="geometry" />
        </mxCell>
        <mxCell id="K43IYD7qbKb4vnzpeUmj-10" value="getD()" style="rounded=0;whiteSpace=wrap;html=1;" vertex="1" parent="1">
          <mxGeometry x="250" y="290" width="110" height="30" as="geometry" />
        </mxCell>
        <mxCell id="K43IYD7qbKb4vnzpeUmj-11" value="setD(value)" style="rounded=0;whiteSpace=wrap;html=1;" vertex="1" parent="1">
          <mxGeometry x="250" y="350" width="110" height="30" as="geometry" />
        </mxCell>
        <mxCell id="K43IYD7qbKb4vnzpeUmj-12" value="" style="rounded=0;whiteSpace=wrap;html=1;" vertex="1" parent="1">
          <mxGeometry x="320" y="460" width="200" height="150" as="geometry" />
        </mxCell>
        <mxCell id="K43IYD7qbKb4vnzpeUmj-13" value="&lt;span style=&quot;font-size: 20px;&quot;&gt;F1=0&lt;/span&gt;" style="ellipse;whiteSpace=wrap;html=1;aspect=fixed;" vertex="1" parent="1">
          <mxGeometry x="387.5" y="502.5" width="65" height="65" as="geometry" />
        </mxCell>
        <mxCell id="K43IYD7qbKb4vnzpeUmj-14" value="MonitorSync" style="text;html=1;align=center;verticalAlign=middle;resizable=0;points=[];autosize=1;strokeColor=none;fillColor=none;" vertex="1" parent="1">
          <mxGeometry x="375" y="460" width="90" height="30" as="geometry" />
        </mxCell>
        <mxCell id="K43IYD7qbKb4vnzpeUmj-15" value="signalSync()" style="rounded=0;whiteSpace=wrap;html=1;" vertex="1" parent="1">
          <mxGeometry x="250" y="480" width="110" height="30" as="geometry" />
        </mxCell>
        <mxCell id="K43IYD7qbKb4vnzpeUmj-16" value="waitSync()" style="rounded=0;whiteSpace=wrap;html=1;" vertex="1" parent="1">
          <mxGeometry x="250" y="540" width="110" height="30" as="geometry" />
        </mxCell>
        <mxCell id="K43IYD7qbKb4vnzpeUmj-17" value="" style="endArrow=classic;html=1;rounded=0;" edge="1" parent="1">
          <mxGeometry width="50" height="50" relative="1" as="geometry">
            <mxPoint x="160" y="495" as="sourcePoint" />
            <mxPoint x="250" y="495" as="targetPoint" />
          </mxGeometry>
        </mxCell>
        <mxCell id="K43IYD7qbKb4vnzpeUmj-19" value="T1, T2, T3, T4" style="text;html=1;align=center;verticalAlign=middle;resizable=0;points=[];autosize=1;strokeColor=none;fillColor=none;" vertex="1" parent="1">
          <mxGeometry x="150" y="470.5" width="100" height="30" as="geometry" />
        </mxCell>
        <mxCell id="K43IYD7qbKb4vnzpeUmj-20" value="T1, T2, T3, T4" style="text;html=1;align=center;verticalAlign=middle;resizable=0;points=[];autosize=1;strokeColor=none;fillColor=none;" vertex="1" parent="1">
          <mxGeometry x="150" y="530" width="100" height="30" as="geometry" />
        </mxCell>
        <mxCell id="K43IYD7qbKb4vnzpeUmj-23" value="" style="endArrow=classic;html=1;rounded=0;" edge="1" parent="1">
          <mxGeometry width="50" height="50" relative="1" as="geometry">
            <mxPoint x="160" y="554.5" as="sourcePoint" />
            <mxPoint x="250" y="554.5" as="targetPoint" />
          </mxGeometry>
        </mxCell>
      </root>
    </mxGraphModel>
  </diagram>
</mxfile>
